<svg id="arrow-btn" width="12" height="12" viewBox="0 0 12 12" fill="none" xmlns="http://www.w3.org/2000/svg">
<path d="M6.52251 2.72953L9.29291 5.49988H1.5C1.22386 5.49988 1 5.72378 1 5.99988C1 6.27603 1.22386 6.49988 1.5 6.49988H9.29291L6.52251 9.27028C6.32726 9.46553 6.32726 9.78213 6.52251 9.97738C6.71781 10.1726 7.03436 10.1726 7.22961 9.97738L10.8536 6.35348C11.0488 6.15818 11.0488 5.84163 10.8536 5.64633L7.22961 2.02242C7.13166 1.92445 7.00316 1.87564 6.87476 1.87598C6.84321 1.87606 6.81166 1.87911 6.78056 1.88513C6.68601 1.90343 6.59576 1.9492 6.52251 2.02242C6.32726 2.21768 6.32726 2.53427 6.52251 2.72953Z" fill="white"/>
</svg>
