<svg id="fire" width="24" height="24" viewBox="0 0 24 24" fill="none" xmlns="http://www.w3.org/2000/svg">
<path fill-rule="evenodd" clip-rule="evenodd" d="M17.3854 7.49996C17.4226 7.53204 17.4595 7.56443 17.4961 7.59715L17.5 7.60067C19.1878 9.1113 20.25 11.3066 20.25 13.75C20.25 18.3063 16.5563 22 12 22C7.44365 22 3.75 18.3063 3.75 13.75C3.75 8.06518 8.18894 3.86003 10.5547 2.02255C11.1702 1.54454 12 1.99606 12 2.77535V7.74996C12 8.71646 12.7835 9.49997 13.75 9.49997C14.7165 9.49997 15.5 8.71646 15.5 7.74996V7.49996C15.5 6.93074 16.0907 6.56139 16.5646 6.87673C16.8513 7.06752 17.1254 7.27577 17.3854 7.49996ZM18.25 13.75C18.25 17.2017 15.4518 20 12 20C8.54822 20 5.75 17.2017 5.75 13.75C5.75 10.1668 7.93781 7.16722 10 5.15394V7.74996C10 9.82103 11.6789 11.5 13.75 11.5C15.051 11.5 16.1972 10.8375 16.8697 9.83148C17.7344 10.9044 18.25 12.2672 18.25 13.75Z" fill="#27AE4D"/>
</svg>
