<svg id="percent" width="24" height="24" viewBox="0 0 24 24" fill="none" xmlns="http://www.w3.org/2000/svg">
<path fill-rule="evenodd" clip-rule="evenodd" d="M11 7.25C11 9.32107 9.32107 11 7.25 11C5.17893 11 3.5 9.32107 3.5 7.25C3.5 5.17893 5.17893 3.5 7.25 3.5C9.32107 3.5 11 5.17893 11 7.25ZM9 7.25C9 8.2165 8.2165 9 7.25 9C6.2835 9 5.5 8.2165 5.5 7.25C5.5 6.2835 6.2835 5.5 7.25 5.5C8.2165 5.5 9 6.2835 9 7.25Z" fill="#27AE4D"/>
<path fill-rule="evenodd" clip-rule="evenodd" d="M16.75 20.5C18.8211 20.5 20.5 18.8211 20.5 16.75C20.5 14.6789 18.8211 13 16.75 13C14.6789 13 13 14.6789 13 16.75C13 18.8211 14.6789 20.5 16.75 20.5ZM16.75 18.5C17.7165 18.5 18.5 17.7165 18.5 16.75C18.5 15.7835 17.7165 15 16.75 15C15.7835 15 15 15.7835 15 16.75C15 17.7165 15.7835 18.5 16.75 18.5Z" fill="#27AE4D"/>
<path d="M19.8 4.20012C20.1905 4.59065 20.1905 5.22381 19.8 5.61434L5.61421 19.8001C5.22369 20.1906 4.59052 20.1906 4.2 19.8001C3.80947 19.4096 3.80947 18.7764 4.2 18.3859L18.3858 4.20012C18.7763 3.8096 19.4095 3.8096 19.8 4.20012Z" fill="#27AE4D"/>
</svg>
