<svg id="star" width="24" height="24" viewBox="0 0 24 24" fill="none" xmlns="http://www.w3.org/2000/svg">
<path fill-rule="evenodd" clip-rule="evenodd" d="M11.0771 2.46997C11.4187 1.64868 12.5821 1.64868 12.9237 2.46997L15.3331 8.26291L21.5871 8.76429C22.4738 8.83538 22.8333 9.94188 22.1578 10.5205L17.3929 14.6021L18.8486 20.705C19.055 21.5702 18.1138 22.254 17.3547 21.7904L12.0004 18.52L6.64613 21.7904C5.88703 22.254 4.94578 21.5702 5.15217 20.705L6.60791 14.6021L1.84305 10.5205C1.16751 9.94188 1.52703 8.83538 2.41369 8.76429L8.66766 8.26291L11.0771 2.46997ZM13.4865 9.03098C13.7745 9.72345 14.4257 10.1966 15.1733 10.2565L19.0307 10.5657L16.0918 13.0832C15.5222 13.5711 15.2735 14.3367 15.4475 15.0662L16.3454 18.8303L13.0429 16.8132C12.4029 16.4223 11.5979 16.4223 10.9579 16.8132L7.65544 18.8303L8.55333 15.0662C8.72734 14.3367 8.4786 13.5711 7.90902 13.0832L4.97011 10.5657L8.82748 10.2565C9.57506 10.1966 10.2263 9.72345 10.5143 9.03098L12.0004 5.45796L13.4865 9.03098Z" fill="#27AE4D"/>
</svg>
