<svg width="8" height="5" viewBox="0 0 8 5" fill="none" xmlns="http://www.w3.org/2000/svg" id="arrow">
<path d="M1.61171 0.666676L4.00226 3.05721L6.39279 0.666676C6.65313 0.406356 7.07519 0.406356 7.33559 0.666676C7.36813 0.699276 7.39659 0.734342 7.42099 0.771276C7.59186 1.03008 7.56339 1.38174 7.33559 1.60954L4.47366 4.47148C4.34859 4.59648 4.17906 4.66668 4.00226 4.66668C3.82539 4.66668 3.65586 4.59648 3.53086 4.47148L0.668893 1.60954C0.408546 1.34914 0.408546 0.927076 0.668893 0.666676C0.701439 0.634162 0.736513 0.605689 0.773479 0.581282C1.03225 0.410429 1.3839 0.438902 1.61171 0.666676Z" fill="currentColor"/>
</svg>
