<svg width="21" height="21" viewBox="0 0 21 21" fill="none" xmlns="http://www.w3.org/2000/svg">
<path fill-rule="evenodd" clip-rule="evenodd" d="M16.731 5.25H14.8751C14.8751 2.83376 12.9163 0.875 10.5001 0.875C8.08382 0.875 6.12507 2.83376 6.12507 5.25H4.26911C3.345 5.25 2.58017 5.96853 2.52252 6.89084L1.86627 17.3908C1.80331 18.3983 2.60342 19.25 3.61286 19.25H17.3873C18.3967 19.25 19.1968 18.3983 19.1339 17.3908L18.4776 6.89083C18.42 5.96852 17.6551 5.25 16.731 5.25ZM6.12507 7H4.26911L3.61286 17.5H17.3873L16.731 7H14.8751V9.625C14.8751 10.1083 14.4833 10.5 14.0001 10.5C13.5168 10.5 13.1251 10.1083 13.1251 9.625V7H7.87507V9.625C7.87507 10.1083 7.48332 10.5 7.00007 10.5C6.51682 10.5 6.12507 10.1083 6.12507 9.625V7ZM10.5001 2.625C11.9498 2.625 13.1251 3.80026 13.1251 5.25H7.87507C7.87507 3.80026 9.0503 2.625 10.5001 2.625Z" fill="black"/>
</svg>
