<svg width="22" height="22" viewBox="0 0 22 22" fill="none" xmlns="http://www.w3.org/2000/svg">
<path d="M2.75 6.41667C2.75 5.91041 3.16041 5.5 3.66667 5.5H18.3333C18.8396 5.5 19.25 5.91041 19.25 6.41667C19.25 6.92293 18.8396 7.33333 18.3333 7.33333H3.66667C3.16041 7.33333 2.75 6.92293 2.75 6.41667Z" fill="white"/>
<path d="M3.66667 10.0833C3.16041 10.0833 2.75 10.4937 2.75 11C2.75 11.5062 3.16041 11.9167 3.66667 11.9167H18.3333C18.8396 11.9167 19.25 11.5062 19.25 11C19.25 10.4937 18.8396 10.0833 18.3333 10.0833H3.66667Z" fill="white"/>
<path d="M2.75 15.5833C2.75 15.077 3.16041 14.6667 3.66667 14.6667H18.3333C18.8396 14.6667 19.25 15.077 19.25 15.5833C19.25 16.0896 18.8396 16.5 18.3333 16.5H3.66667C3.16041 16.5 2.75 16.0896 2.75 15.5833Z" fill="white"/>
</svg>
