<svg id="chat-green" width="20" height="20" viewBox="0 0 20 20" fill="none" xmlns="http://www.w3.org/2000/svg">
<path fill-rule="evenodd" clip-rule="evenodd" d="M0 7.50016C0 8.79558 0.415671 10.0047 1.13493 11.0279L0.412082 13.5579C0.232474 14.1865 0.813661 14.7677 1.44228 14.5881L4.65454 13.6703C5.05611 13.8167 5.47513 13.9332 5.90807 14.0163C5.9081 14.0164 5.90805 14.0163 5.90807 14.0163C6.42105 14.1149 6.95362 14.1669 7.49977 14.1669C7.63958 14.1669 7.77851 14.1635 7.91644 14.1567C7.91628 14.1567 7.91659 14.1567 7.91644 14.1567C11.8651 13.9649 15 11.058 15 7.50016C15 3.81826 11.6422 0.833496 7.5 0.833496C3.35787 0.833496 0 3.81826 0 7.50016ZM2.73747 11.4858C2.87574 11.0018 2.78789 10.4812 2.49843 10.0695C1.96285 9.30758 1.66667 8.42958 1.66667 7.50016C1.66667 4.91786 4.08837 2.50016 7.5 2.50016C10.9117 2.50016 13.3333 4.91786 13.3333 7.50016C13.3333 10.0825 10.9117 12.5002 7.5 12.5002C6.68791 12.5002 5.92037 12.3579 5.22568 12.1046C4.89516 11.984 4.53496 11.9711 4.19667 12.0677L2.4267 12.5735L2.73747 11.4858Z" fill="#27AE4D"/>
<path d="M16.2781 5.07324C16.5139 5.78577 16.6486 6.54408 16.6648 7.33737C17.7155 8.2673 18.3331 9.52933 18.3331 10.8334C18.3331 11.7628 18.0369 12.6408 17.5013 13.4027C17.2119 13.8145 17.124 14.3351 17.2623 14.819L17.5731 15.9067L15.8031 15.401C15.4648 15.3043 15.1046 15.3172 14.7741 15.4377C14.0794 15.6912 13.3118 15.8334 12.4998 15.8334C11.6841 15.8334 10.9251 15.6952 10.2422 15.4496C9.37984 15.6964 8.47009 15.8297 7.53876 15.8333C8.86092 16.8707 10.5977 17.5001 12.4998 17.5001C13.5069 17.5001 14.4678 17.3236 15.3453 17.0035L18.5575 17.9213C19.1861 18.1009 19.7673 17.5197 19.5877 16.8911L18.8648 14.3612C19.5841 13.3379 19.9998 12.1288 19.9998 10.8334C19.9998 8.37617 18.5043 6.22948 16.2781 5.07324Z" fill="#27AE4D"/>
</svg>
