<svg width="20" height="20" viewBox="0 0 20 20" fill="none" xmlns="http://www.w3.org/2000/svg" id="clock-white">
<path d="M9.99996 6.25C9.53971 6.25 9.16663 6.6231 9.16663 7.08333V10C9.16663 10.2978 9.32546 10.5728 9.58329 10.7217L12.47 12.3883C12.5199 12.4171 12.5715 12.4402 12.624 12.4577C12.9917 12.5803 13.407 12.4321 13.6084 12.0833C13.8385 11.6848 13.702 11.1751 13.3034 10.945L10.8333 9.51892V7.08333C10.8333 6.6231 10.4602 6.25 9.99996 6.25Z" fill="#D1D1D1"/>
<path fill-rule="evenodd" clip-rule="evenodd" d="M9.99996 18.3332C14.6023 18.3332 18.3333 14.6022 18.3333 9.99984C18.3333 5.39746 14.6023 1.6665 9.99996 1.6665C5.39758 1.6665 1.66663 5.39746 1.66663 9.99984C1.66663 14.6022 5.39758 18.3332 9.99996 18.3332ZM9.99996 16.6665C13.6819 16.6665 16.6666 13.6818 16.6666 9.99984C16.6666 6.31794 13.6819 3.33317 9.99996 3.33317C6.31806 3.33317 3.33329 6.31794 3.33329 9.99984C3.33329 13.6818 6.31806 16.6665 9.99996 16.6665Z" fill="#D1D1D1"/>
</svg>
