<svg id="clock-green" width="20" height="20" viewBox="0 0 20 20" fill="none" xmlns="http://www.w3.org/2000/svg">
<path d="M10 6.25C9.53977 6.25 9.16669 6.6231 9.16669 7.08333V10C9.16669 10.2977 9.32552 10.5728 9.58335 10.7217L12.4701 12.3883C12.5199 12.4171 12.5715 12.4402 12.624 12.4577C12.9918 12.5803 13.4071 12.4321 13.6084 12.0833C13.8386 11.6848 13.702 11.1751 13.3034 10.945L10.8334 9.51892V7.08333C10.8334 6.6231 10.4603 6.25 10 6.25Z" fill="#27AE4D"/>
<path fill-rule="evenodd" clip-rule="evenodd" d="M10 18.3332C14.6024 18.3332 18.3334 14.6022 18.3334 9.99984C18.3334 5.39746 14.6024 1.6665 10 1.6665C5.39765 1.6665 1.66669 5.39746 1.66669 9.99984C1.66669 14.6022 5.39765 18.3332 10 18.3332ZM10 16.6665C13.6819 16.6665 16.6667 13.6818 16.6667 9.99984C16.6667 6.31794 13.6819 3.33317 10 3.33317C6.31812 3.33317 3.33335 6.31794 3.33335 9.99984C3.33335 13.6818 6.31812 16.6665 10 16.6665Z" fill="#27AE4D"/>
</svg>
