<svg width="21" height="21" viewBox="0 0 21 21" fill="none" xmlns="http://www.w3.org/2000/svg" id="heart">
<path fill-rule="evenodd" clip-rule="evenodd" d="M14.4231 2.80667C15.8176 2.80667 17.1553 3.36006 18.1423 4.34534C19.1293 5.33063 19.685 6.6673 19.6875 8.06192C19.6875 10.8916 18.6493 12.2422 14.0096 15.908L11.6266 17.7577C10.9637 18.2723 10.0363 18.2723 9.37335 17.7577L6.99038 15.908C2.35069 12.2422 1.3125 10.8916 1.3125 8.06192C1.31493 6.6673 1.87065 5.33063 2.85766 4.34534C3.84467 3.36006 5.18231 2.80667 6.57694 2.80667C7.99957 2.81343 9.36372 3.37358 10.3806 4.36855L10.5 4.48123L10.6194 4.36855C11.6363 3.37358 13.0004 2.81343 14.4231 2.80667ZM9.8196 6.31268C9.83622 6.32835 9.85285 6.34402 9.86939 6.35964C10.2234 6.69371 10.7765 6.69371 11.1305 6.35964C11.1472 6.34396 11.1638 6.32826 11.1804 6.31252C11.9891 5.54909 12.8442 4.74166 13.9432 4.59109C14.1028 4.56923 14.2644 4.55763 14.4272 4.55667C15.3567 4.55777 16.248 4.92708 16.906 5.58386C17.5644 6.24113 17.9353 7.13264 17.9375 8.06291C17.9374 9.18687 17.7524 9.8489 17.1751 10.6394C16.4971 11.5679 15.2657 12.685 12.9306 14.5302L10.5536 16.3752C10.522 16.3997 10.478 16.3997 10.4464 16.3752L8.06936 14.5302C5.73426 12.685 4.50292 11.5679 3.82483 10.6394C3.24764 9.84899 3.06267 9.18714 3.0625 8.06354C3.0645 7.13304 3.43545 6.24128 4.09402 5.58386C4.75195 4.92708 5.64327 4.55777 6.5728 4.55667C6.73535 4.55763 6.89677 4.5692 7.05612 4.59101C8.15541 4.74143 9.01084 5.54907 9.8196 6.31268Z" fill="black"/>
</svg>
