<svg id="mail-green" width="20" height="20" viewBox="0 0 20 20" fill="none" xmlns="http://www.w3.org/2000/svg">
<path fill-rule="evenodd" clip-rule="evenodd" d="M17.5002 5.3522C18.0158 5.64994 18.3334 6.2001 18.3334 6.79548V15C18.3334 15.9205 17.5872 16.6667 16.6667 16.6667H3.33335C2.41288 16.6667 1.66669 15.9205 1.66669 15V6.79548C1.66669 6.2001 1.98428 5.64994 2.49986 5.3522L9.16652 1.5022C9.68227 1.20435 10.3178 1.20435 10.8335 1.5022L17.5002 5.3522ZM10.8335 12.0891L16.6667 8.72044V15H3.33335V8.72044L9.16652 12.0891C9.68227 12.387 10.3178 12.387 10.8335 12.0891ZM3.33335 6.79585L10 10.6459L16.6667 6.79585V6.79548L10 2.94548L3.33335 6.79548V6.79585Z" fill="#27AE4D"/>
</svg>
