<svg id="mail-white" width="20" height="20" viewBox="0 0 20 20" fill="none" xmlns="http://www.w3.org/2000/svg">
<path fill-rule="evenodd" clip-rule="evenodd" d="M17.5001 5.3522C18.0157 5.64994 18.3333 6.2001 18.3333 6.79548V15C18.3333 15.9205 17.5871 16.6667 16.6666 16.6667H3.33329C2.41282 16.6667 1.66663 15.9205 1.66663 15V6.79548C1.66663 6.2001 1.98422 5.64994 2.4998 5.3522L9.16646 1.5022C9.68221 1.20435 10.3177 1.20435 10.8335 1.5022L17.5001 5.3522ZM10.8335 12.0891L16.6666 8.72044V15H3.33329V8.72044L9.16646 12.0891C9.68221 12.387 10.3177 12.387 10.8335 12.0891ZM3.33329 6.79585L9.99996 10.6459L16.6666 6.79585V6.79548L9.99996 2.94548L3.33329 6.79548V6.79585Z" fill="#D1D1D1"/>
</svg>
