<svg width="24" height="24" viewBox="0 0 24 24" fill="none" xmlns="http://www.w3.org/2000/svg" id="mail">
<path fill-rule="evenodd" clip-rule="evenodd" d="M21.0002 6.42261C21.6189 6.7799 22 7.4401 22 8.15455V18C22 19.1046 21.1046 20 20 20H4C2.89543 20 2 19.1046 2 18V8.15455C2 7.4401 2.38111 6.7799 2.99981 6.42261L10.9998 1.80261C11.6187 1.44519 12.3813 1.44519 13.0002 1.80261L21.0002 6.42261ZM13.0002 14.5069L20 10.4645V18H4V10.4645L10.9998 14.5069C11.6187 14.8644 12.3813 14.8644 13.0002 14.5069ZM4 8.155L12 12.775L20 8.155L12 3.53455L4 8.155Z" fill="black"/>
</svg>
