<svg id="map-green" width="20" height="20" viewBox="0 0 20 20" fill="none" xmlns="http://www.w3.org/2000/svg">
<path fill-rule="evenodd" clip-rule="evenodd" d="M10 11.6667C11.8409 11.6667 13.3334 10.1742 13.3334 8.33333C13.3334 6.49238 11.8409 5 10 5C8.15907 5 6.66669 6.49238 6.66669 8.33333C6.66669 10.1742 8.15907 11.6667 10 11.6667ZM10 10C10.9205 10 11.6667 9.25383 11.6667 8.33333C11.6667 7.41286 10.9205 6.66667 10 6.66667C9.07952 6.66667 8.33335 7.41286 8.33335 8.33333C8.33335 9.25383 9.07952 10 10 10Z" fill="#27AE4D"/>
<path fill-rule="evenodd" clip-rule="evenodd" d="M17.5 8.3335C17.5 12.4693 13.0877 17.1243 11.0317 19.0689C10.4453 19.6234 9.55467 19.6234 8.96833 19.0689C6.91236 17.1243 2.5 12.4693 2.5 8.3335C2.5 4.19136 5.85787 0.833496 10 0.833496C14.1422 0.833496 17.5 4.19136 17.5 8.3335ZM15.8333 8.3335C15.8333 9.86975 14.9827 11.7124 13.6759 13.5608C12.4528 15.2908 10.9897 16.805 10 17.7501C9.01025 16.805 7.54717 15.2908 6.32409 13.5608C5.01729 11.7124 4.16667 9.86975 4.16667 8.3335C4.16667 5.11184 6.77834 2.50016 10 2.50016C13.2217 2.50016 15.8333 5.11184 15.8333 8.3335Z" fill="#27AE4D"/>
</svg>
