<svg width="18" height="18" viewBox="0 0 18 18" fill="none" xmlns="http://www.w3.org/2000/svg">
<path fill-rule="evenodd" clip-rule="evenodd" d="M9 10.5C10.6568 10.5 12 9.15682 12 7.5C12 5.84314 10.6568 4.5 9 4.5C7.34314 4.5 6 5.84314 6 7.5C6 9.15682 7.34314 10.5 9 10.5ZM9 9C9.82845 9 10.5 8.32845 10.5 7.5C10.5 6.67157 9.82845 6 9 6C8.17155 6 7.5 6.67157 7.5 7.5C7.5 8.32845 8.17155 9 9 9Z" fill="black"/>
<path fill-rule="evenodd" clip-rule="evenodd" d="M15.75 7.5C15.75 11.2223 11.7789 15.4118 9.9285 17.1619C9.4008 17.6609 8.5992 17.6609 8.0715 17.1619C6.22112 15.4118 2.25 11.2223 2.25 7.5C2.25 3.77208 5.27208 0.75 9 0.75C12.728 0.75 15.75 3.77208 15.75 7.5ZM14.25 7.5C14.25 8.88263 13.4845 10.541 12.3083 12.2046C11.2076 13.7616 9.89078 15.1244 9 15.9749C8.10922 15.1244 6.79246 13.7616 5.69168 12.2046C4.51556 10.541 3.75 8.88263 3.75 7.5C3.75 4.60051 6.10051 2.25 9 2.25C11.8995 2.25 14.25 4.60051 14.25 7.5Z" fill="black"/>
</svg>
