<svg width="20" height="20" viewBox="0 0 20 20" fill="none" xmlns="http://www.w3.org/2000/svg">
<path fill-rule="evenodd" clip-rule="evenodd" d="M17.5039 17.785C18.0274 17.3369 18.3302 16.6833 18.3334 15.9942V13.4829C18.3334 12.7517 17.8568 12.106 17.1582 11.8904L14.2609 10.9963C13.738 10.835 13.1693 10.9406 12.7391 11.2788L11.5829 12.1882C10.8629 11.6837 10.1765 11.1099 9.53327 10.4667C8.8901 9.82349 8.31628 9.13716 7.81185 8.41707L8.72119 7.2609C9.05944 6.83077 9.16502 6.26199 9.00369 5.7391L8.10963 2.84186C7.89403 2.14321 7.24824 1.66666 6.51707 1.66666H4.00577C3.31669 1.66983 2.66306 1.97257 2.21499 2.49609C1.84466 2.92879 1.63507 3.4808 1.67058 4.04923C1.8944 7.63186 3.37495 11.1502 6.11234 13.8877C8.84977 16.6251 12.3682 18.1056 15.9508 18.3294C16.5192 18.3649 17.0712 18.1553 17.5039 17.785ZM6.50183 7.38669C6.04752 7.96431 6.02515 8.77132 6.44674 9.37324C7.00654 10.1724 7.64274 10.9332 8.35477 11.6452C9.06685 12.3572 9.8276 12.9935 10.6268 13.5532C11.2287 13.9748 12.0357 13.9525 12.6134 13.4982L13.7694 12.5889L16.6667 13.4829V15.9893C16.6649 16.1931 16.5751 16.3862 16.4202 16.5188C16.2771 16.6412 16.1413 16.6714 16.0547 16.666C12.8617 16.4665 9.73019 15.1485 7.29085 12.7092C4.85153 10.2698 3.53349 7.13829 3.334 3.94531C3.32859 3.85872 3.35874 3.72292 3.48121 3.57982C3.61379 3.42491 3.80694 3.33504 4.01074 3.33332H6.51707L7.41114 6.23055L6.50183 7.38669Z" fill="black"/>
</svg>
