<svg id="phone-white" width="20" height="20" viewBox="0 0 20 20" fill="none" xmlns="http://www.w3.org/2000/svg">
<path fill-rule="evenodd" clip-rule="evenodd" d="M17.5039 17.7848C18.0274 17.3368 18.3301 16.6832 18.3333 15.9941V13.4828C18.3333 12.7516 17.8567 12.1058 17.1581 11.8903L14.2609 10.9962C13.738 10.8348 13.1692 10.9404 12.739 11.2787L11.5829 12.188C10.8628 11.6836 10.1765 11.1098 9.53321 10.4666C8.89004 9.82334 8.31622 9.137 7.81178 8.41692L8.72112 7.26075C9.05937 6.83062 9.16496 6.26184 9.00363 5.73895L8.10957 2.84171C7.89397 2.14305 7.24817 1.6665 6.51701 1.6665H4.00571C3.31663 1.66968 2.663 1.97242 2.21493 2.49594C1.8446 2.92864 1.63501 3.48065 1.67052 4.04908C1.89434 7.6317 3.37489 11.1501 6.11228 13.8875C8.84971 16.6249 12.3681 18.1054 15.9507 18.3293C16.5191 18.3648 17.0711 18.1552 17.5039 17.7848ZM6.50177 7.38654C6.04746 7.96416 6.02508 8.77117 6.44668 9.37309C7.00648 10.1723 7.64267 10.933 8.35471 11.6451C9.06679 12.3571 9.82754 12.9933 10.6267 13.5531C11.2286 13.9747 12.0356 13.9523 12.6133 13.498L13.7694 12.5888L16.6666 13.4828V15.9892C16.6649 16.1929 16.575 16.3861 16.4201 16.5187C16.277 16.6411 16.1412 16.6713 16.0546 16.6658C12.8616 16.4663 9.73012 15.1483 7.29079 12.709C4.85147 10.2697 3.53343 7.13814 3.33394 3.94515C3.32853 3.85857 3.35868 3.72277 3.48115 3.57967C3.61373 3.42476 3.80688 3.33489 4.01068 3.33317H6.51701L7.41108 6.2304L6.50177 7.38654Z" fill="#D1D1D1"/>
</svg>
