<svg id="phone-green" width="20" height="20" viewBox="0 0 20 20" fill="none" xmlns="http://www.w3.org/2000/svg">
<path fill-rule="evenodd" clip-rule="evenodd" d="M17.5039 17.7848C18.0274 17.3368 18.3302 16.6832 18.3334 15.9941V13.4828C18.3334 12.7516 17.8568 12.1058 17.1582 11.8903L14.2609 10.9962C13.738 10.8348 13.1693 10.9404 12.7391 11.2787L11.5829 12.188C10.8629 11.6836 10.1765 11.1098 9.53327 10.4666C8.8901 9.82334 8.31628 9.137 7.81184 8.41692L8.72119 7.26075C9.05944 6.83062 9.16502 6.26184 9.00369 5.73895L8.10963 2.84171C7.89403 2.14305 7.24824 1.6665 6.51707 1.6665H4.00577C3.31669 1.66968 2.66306 1.97242 2.21499 2.49594C1.84466 2.92864 1.63507 3.48065 1.67058 4.04908C1.8944 7.6317 3.37495 11.1501 6.11234 13.8875C8.84977 16.6249 12.3682 18.1054 15.9508 18.3293C16.5192 18.3648 17.0712 18.1552 17.5039 17.7848ZM6.50183 7.38654C6.04752 7.96416 6.02514 8.77117 6.44674 9.37309C7.00654 10.1723 7.64274 10.933 8.35477 11.6451C9.06685 12.3571 9.8276 12.9933 10.6268 13.5531C11.2287 13.9747 12.0357 13.9523 12.6134 13.498L13.7694 12.5888L16.6667 13.4828V15.9892C16.6649 16.1929 16.5751 16.3861 16.4202 16.5187C16.2771 16.6411 16.1413 16.6713 16.0547 16.6658C12.8617 16.4663 9.73019 15.1483 7.29085 12.709C4.85153 10.2697 3.53349 7.13814 3.334 3.94515C3.32859 3.85857 3.35874 3.72277 3.48121 3.57967C3.61379 3.42476 3.80694 3.33489 4.01074 3.33317H6.51707L7.41114 6.2304L6.50183 7.38654Z" fill="#27AE4D"/>
</svg>
