<svg id="plus" width="14" height="14" viewBox="0 0 10 10" fill="none" xmlns="http://www.w3.org/2000/svg">
<path d="M4.58404 8.33333C4.58404 8.56346 4.77063 8.75 5.00071 8.75C5.23084 8.75 5.41738 8.56346 5.41738 8.33333V5.41663H8.33405C8.56417 5.41663 8.75071 5.23008 8.75071 4.99996C8.75071 4.76983 8.56417 4.58329 8.33405 4.58329H5.41738V1.66667C5.41738 1.43655 5.23084 1.25 5.00071 1.25C4.77063 1.25 4.58404 1.43655 4.58404 1.66667V4.58329H1.6674C1.43728 4.58329 1.25073 4.76983 1.25073 4.99996C1.25073 5.23008 1.43728 5.41663 1.6674 5.41663H4.58404V8.33333Z" fill="#717171"/>
</svg>
