<svg width="22" height="22" viewBox="0 0 22 22" fill="none" xmlns="http://www.w3.org/2000/svg">
<path fill-rule="evenodd" clip-rule="evenodd" d="M9.62683 1.83334C5.32356 1.83334 1.83511 5.32179 1.83511 9.62501C1.83511 13.9282 5.32356 17.4167 9.62683 17.4167C11.4477 17.4167 13.1238 16.7911 14.4501 15.7447L18.8721 20.1667C19.2301 20.5246 19.8104 20.5246 20.1685 20.1667C20.5265 19.8087 20.5265 19.2283 20.1685 18.8703L15.7464 14.4483C16.793 13.122 17.4185 11.446 17.4185 9.62501C17.4185 5.32179 13.93 1.83334 9.62683 1.83334ZM3.66845 9.62501C3.66845 6.33431 6.33608 3.66668 9.62683 3.66668C12.9175 3.66668 15.5852 6.33431 15.5852 9.62501C15.5852 11.2706 14.9192 12.7589 13.8399 13.8382C12.7607 14.9175 11.2724 15.5833 9.62683 15.5833C6.33608 15.5833 3.66845 12.9158 3.66845 9.62501Z" fill="white"/>
</svg>
