<svg width="24" height="24" viewBox="0 0 24 24" fill="none" xmlns="http://www.w3.org/2000/svg" id="vk">
<path d="M21 18.5C21 19.881 19.881 21 18.5 21H5.5C4.1195 21 3 19.881 3 18.5V5.5C3 4.119 4.1195 3 5.5 3H18.5C19.881 3 21 4.119 21 5.5V18.5Z" fill="#1976D2"/>
<path d="M17.9685 9.0205C17.9915 8.945 18.0025 8.875 17.9995 8.8125C17.992 8.6315 17.8675 8.5 17.5745 8.5H16.2655C15.935 8.5 15.7825 8.7 15.6935 8.9005C15.6935 8.9005 14.8775 10.58 13.937 11.6875C13.632 12.008 13.477 12 13.312 12C13.2235 12 13 11.893 13 11.5995V9.007C13 8.66 12.9135 8.5 12.634 8.5H10.3095C10.106 8.5 10 8.66 10 8.8205C10 9.154 10.449 9.234 10.5 10.1685V11.98C10.5 12.42 10.4235 12.5 10.2585 12.5C9.8135 12.5 8.9375 11 8.351 9.034C8.224 8.647 8.097 8.5 7.7665 8.5H6.445C6.0635 8.5 6 8.687 6 8.887C6 9.2475 6.3 11.1965 7.9375 13.4375C9.125 15.0625 10.6895 16 12.0745 16C12.9135 16 12.9995 15.7865 12.9995 15.453V13.967C13 13.5665 13.0915 13.5 13.3585 13.5C13.549 13.5 13.9375 13.625 14.6875 14.5C15.5525 15.509 15.7095 16 16.2055 16H17.5145C17.8185 16 17.993 15.8725 18 15.625C18.0015 15.562 17.9925 15.4915 17.972 15.413C17.875 15.125 17.43 14.421 16.875 13.75C16.5675 13.3785 16.264 13.0105 16.1245 12.8105C16.031 12.68 15.9955 12.588 16 12.5C16.0045 12.4075 16.0525 12.3195 16.1245 12.1965C16.1115 12.1965 17.8035 9.821 17.9685 9.0205Z" fill="white"/>
</svg>
