<svg width="24" height="24" viewBox="0 0 24 24" fill="none" xmlns="http://www.w3.org/2000/svg">
<path fill-rule="evenodd" clip-rule="evenodd" d="M2.43401 21.6515L3.78101 16.734C2.95001 15.295 2.51301 13.662 2.51351 11.9895C2.51601 6.757 6.77401 2.5 12.007 2.5C14.5465 2.501 16.9295 3.4895 18.722 5.283C20.514 7.077 21.501 9.461 21.5 11.997C21.498 17.2295 17.239 21.487 12.007 21.487C12.0065 21.487 12.007 21.487 12.007 21.487H12.003C10.4145 21.4865 8.85301 21.088 7.46651 20.3315L2.43401 21.6515Z" fill="white"/>
<path fill-rule="evenodd" clip-rule="evenodd" d="M2.434 21.9015C2.368 21.9015 2.304 21.8755 2.2565 21.8275C2.194 21.764 2.1695 21.6715 2.193 21.586L3.5125 16.768C2.6945 15.315 2.263 13.665 2.264 11.99C2.266 6.619 6.6365 2.25 12.007 2.25C14.612 2.251 17.0595 3.2655 18.899 5.1065C20.7385 6.948 21.751 9.395 21.75 11.997C21.748 17.3675 17.377 21.737 12.007 21.737C10.4125 21.7365 8.835 21.343 7.435 20.5985L2.4975 21.893C2.4765 21.899 2.4555 21.9015 2.434 21.9015Z" fill="white"/>
<path fill-rule="evenodd" clip-rule="evenodd" d="M12.007 2.5C14.5465 2.501 16.9295 3.4895 18.722 5.283C20.514 7.077 21.501 9.461 21.5 11.997C21.498 17.2295 17.239 21.487 12.007 21.487H12.003C10.4145 21.4865 8.853 21.088 7.4665 20.3315L2.434 21.6515L3.781 16.734C2.95 15.295 2.513 13.662 2.5135 11.9895C2.516 6.757 6.774 2.5 12.007 2.5ZM12.007 2C6.499 2 2.016 6.481 2.0135 11.9895C2.013 13.673 2.438 15.332 3.244 16.8005L1.9515 21.52C1.9045 21.6925 1.9525 21.8765 2.0785 22.0035C2.1735 22.0995 2.302 22.152 2.434 22.152C2.4765 22.152 2.519 22.1465 2.561 22.1355L7.4045 20.8655C8.8185 21.5995 10.4035 21.987 12.003 21.9875C17.515 21.9875 21.998 17.506 22.0005 11.9975C22.0015 9.328 20.963 6.818 19.0765 4.93C17.189 3.0415 14.6785 2.001 12.007 2Z" fill="#CFD8DC"/>
<path fill-rule="evenodd" clip-rule="evenodd" d="M17.588 6.416C16.098 4.925 14.1175 4.1035 12.0095 4.103C7.6575 4.103 4.118 7.641 4.116 11.99C4.1155 13.4805 4.5325 14.9315 5.3225 16.188L5.5105 16.4865L4.713 19.397L7.6995 18.614L7.988 18.785C9.199 19.504 10.588 19.884 12.004 19.8845H12.007C16.356 19.8845 19.8955 16.346 19.897 11.9965C19.8975 9.889 19.078 7.907 17.588 6.416Z" fill="#40C351"/>
<path fill-rule="evenodd" clip-rule="evenodd" d="M9.634 8.0225C9.4565 7.6275 9.2695 7.61951 9.1 7.61251C8.9615 7.60651 8.8035 7.607 8.6455 7.607C8.4875 7.607 8.23049 7.6665 8.01299 7.904C7.79549 8.1415 7.1825 8.715 7.1825 9.882C7.1825 11.049 8.0325 12.177 8.151 12.335C8.2695 12.493 9.792 14.9645 12.203 15.9155C14.2065 16.7055 14.6145 16.5485 15.0495 16.509C15.4845 16.4695 16.453 15.9355 16.6505 15.3815C16.848 14.8275 16.848 14.353 16.789 14.254C16.7295 14.155 16.5715 14.096 16.3345 13.977C16.0975 13.858 14.931 13.2845 14.7135 13.2055C14.496 13.1265 14.338 13.087 14.1795 13.3245C14.0215 13.5615 13.567 14.096 13.4285 14.254C13.29 14.4125 13.1515 14.4325 12.9145 14.3135C12.6775 14.1945 11.9135 13.9445 11.007 13.1365C10.302 12.508 9.826 11.7315 9.6875 11.494C9.549 11.257 9.6725 11.1285 9.7915 11.01C9.898 10.9035 10.0285 10.733 10.1475 10.5945C10.266 10.456 10.3055 10.357 10.3845 10.199C10.4635 10.0405 10.424 9.902 10.3645 9.7835C10.306 9.6645 9.845 8.49151 9.634 8.0225Z" fill="white"/>
</svg>
