<svg width="22" height="22" viewBox="0 0 22 22" fill="none" xmlns="http://www.w3.org/2000/svg">
<path d="M12.5399 16.5642C12.5399 16.39 12.6041 16.2158 12.7416 16.0783L17.8199 11L12.7416 5.92165C12.4758 5.65582 12.4758 5.21582 12.7416 4.94999C13.0074 4.68415 13.4474 4.68415 13.7133 4.94999L19.2774 10.5142C19.5433 10.78 19.5433 11.22 19.2774 11.4858L13.7133 17.05C13.4474 17.3158 13.0074 17.3158 12.7416 17.05C12.6041 16.9217 12.5399 16.7383 12.5399 16.5642Z" fill="#20201F"/>
<path d="M2.52074 11C2.52074 10.6242 2.83241 10.3125 3.20824 10.3125L18.6357 10.3125C19.0116 10.3125 19.3232 10.6242 19.3232 11C19.3232 11.3758 19.0116 11.6875 18.6357 11.6875L3.20824 11.6875C2.83241 11.6875 2.52074 11.3758 2.52074 11Z" fill="#20201F"/>
</svg>
