<svg width="147" height="34" viewBox="0 0 147 34" fill="none" xmlns="http://www.w3.org/2000/svg">
<path d="M0.176 25L7.04 9.6H10.56L17.446 25H13.706L8.074 11.404H9.482L3.828 25H0.176ZM3.608 21.7L4.554 18.994H12.474L13.442 21.7H3.608ZM19.0482 25V9.6H29.9162L29.8942 12.504H21.7542L22.5682 11.69L22.5902 25H19.0482ZM31.6492 25V9.6H38.3152C39.6939 9.6 40.8819 9.82733 41.8792 10.282C42.8766 10.722 43.6466 11.36 44.1892 12.196C44.7319 13.032 45.0032 14.0293 45.0032 15.188C45.0032 16.332 44.7319 17.322 44.1892 18.158C43.6466 18.994 42.8766 19.6393 41.8792 20.094C40.8819 20.534 39.6939 20.754 38.3152 20.754H33.6292L35.2132 19.148V25H31.6492ZM35.2132 19.544L33.6292 17.85H38.1172C39.2172 17.85 40.0386 17.6153 40.5812 17.146C41.1239 16.6767 41.3952 16.024 41.3952 15.188C41.3952 14.3373 41.1239 13.6773 40.5812 13.208C40.0386 12.7387 39.2172 12.504 38.1172 12.504H33.6292L35.2132 10.81V19.544ZM54.4992 25.264C53.2818 25.264 52.1525 25.066 51.1112 24.67C50.0845 24.274 49.1898 23.7167 48.4272 22.998C47.6792 22.2793 47.0925 21.436 46.6672 20.468C46.2565 19.5 46.0512 18.444 46.0512 17.3C46.0512 16.156 46.2565 15.1 46.6672 14.132C47.0925 13.164 47.6865 12.3207 48.4492 11.602C49.2118 10.8833 50.1065 10.326 51.1332 9.93C52.1598 9.534 53.2745 9.336 54.4772 9.336C55.6945 9.336 56.8092 9.534 57.8212 9.93C58.8478 10.326 59.7352 10.8833 60.4832 11.602C61.2458 12.3207 61.8398 13.164 62.2652 14.132C62.6905 15.0853 62.9032 16.1413 62.9032 17.3C62.9032 18.444 62.6905 19.5073 62.2652 20.49C61.8398 21.458 61.2458 22.3013 60.4832 23.02C59.7352 23.724 58.8478 24.274 57.8212 24.67C56.8092 25.066 55.7018 25.264 54.4992 25.264ZM54.4772 22.228C55.1665 22.228 55.7972 22.1107 56.3692 21.876C56.9558 21.6413 57.4692 21.304 57.9092 20.864C58.3492 20.424 58.6865 19.9033 58.9212 19.302C59.1705 18.7007 59.2952 18.0333 59.2952 17.3C59.2952 16.5667 59.1705 15.8993 58.9212 15.298C58.6865 14.6967 58.3492 14.176 57.9092 13.736C57.4838 13.296 56.9778 12.9587 56.3912 12.724C55.8045 12.4893 55.1665 12.372 54.4772 12.372C53.7878 12.372 53.1498 12.4893 52.5632 12.724C51.9912 12.9587 51.4852 13.296 51.0452 13.736C50.6052 14.176 50.2605 14.6967 50.0112 15.298C49.7765 15.8993 49.6592 16.5667 49.6592 17.3C49.6592 18.0187 49.7765 18.686 50.0112 19.302C50.2605 19.9033 50.5978 20.424 51.0232 20.864C51.4632 21.304 51.9765 21.6413 52.5632 21.876C53.1498 22.1107 53.7878 22.228 54.4772 22.228ZM68.3158 25V11.69L69.1298 12.504H63.4098V9.6H76.7638V12.504H71.0438L71.8358 11.69V25H68.3158ZM81.8397 15.804H89.2537V18.576H81.8397V15.804ZM82.1037 22.14H90.4857V25H78.5617V9.6H90.1997V12.46H82.1037V22.14ZM91.432 9.6H95.546L98.736 14.264L101.926 9.6H106.106L100.98 16.97L106.524 25H102.322L98.736 19.896L95.194 25H91.08L96.58 17.124L91.432 9.6Z" fill="#27AE4D"/>
<rect x="110" width="37" height="34" rx="4" fill="#27AE4D"/>
<path d="M116.858 26V23.27L123.878 16.64C124.433 16.1373 124.84 15.6867 125.1 15.288C125.36 14.8893 125.533 14.5253 125.62 14.196C125.724 13.8667 125.776 13.5633 125.776 13.286C125.776 12.558 125.525 12.0033 125.022 11.622C124.537 11.2233 123.817 11.024 122.864 11.024C122.101 11.024 121.391 11.1713 120.732 11.466C120.091 11.7607 119.545 12.22 119.094 12.844L116.026 10.868C116.719 9.828 117.69 9.00467 118.938 8.398C120.186 7.79133 121.625 7.488 123.254 7.488C124.606 7.488 125.785 7.71333 126.79 8.164C127.813 8.59733 128.601 9.21267 129.156 10.01C129.728 10.8073 130.014 11.7607 130.014 12.87C130.014 13.4593 129.936 14.0487 129.78 14.638C129.641 15.21 129.347 15.8167 128.896 16.458C128.463 17.0993 127.821 17.8187 126.972 18.616L121.148 24.102L120.342 22.568H130.612V26H116.858ZM135.158 26V9.36L136.978 11.18H131.518V7.8H139.37V26H135.158Z" fill="white"/>
</svg>
